<?xml version="1.0" encoding="UTF-8"?>
<!DOCTYPE svg PUBLIC "-//W3C//DTD SVG 1.1//EN" "http://www.w3.org/Graphics/SVG/1.1/DTD/svg11.dtd">
<!-- Creator: CorelDRAW -->
<svg xmlns="http://www.w3.org/2000/svg" xml:space="preserve" width="70px" height="70px" version="1.1" style="shape-rendering:geometricPrecision; text-rendering:geometricPrecision; image-rendering:optimizeQuality; fill-rule:evenodd; clip-rule:evenodd"
viewBox="0 0 42.81 42.8"
 xmlns:xlink="http://www.w3.org/1999/xlink"
 xmlns:xodm="http://www.corel.com/coreldraw/odm/2003">
 <defs>
  <style type="text/css">
   <![CDATA[
    .fil1 {fill:none}
    .fil0 {fill:#B88F5A;fill-rule:nonzero}
   ]]>
  </style>
 </defs>
 <g id="Layer_x0020_1">
  <metadata id="CorelCorpID_0Corel-Layer"/>
  <path class="fil0" d="M14.96 30.14c3.19,0 5.52,-2.06 5.52,-4.79 0,-2.17 -1.33,-3.76 -3.5,-4.19l0 -0.11c1.79,-0.53 2.92,-1.98 2.92,-3.93 0,-2.44 -1.92,-4.49 -4.91,-4.49 -2.86,0 -5.14,1.83 -5.2,4.49l1.5 0c0.05,-1.9 1.7,-3.12 3.68,-3.12 2.06,0 3.42,1.31 3.42,3.19 0,1.99 -1.59,3.27 -3.8,3.27l-1 0 0 1.39 1 0c2.69,0 4.36,1.43 4.36,3.5 0,1.96 -1.66,3.39 -4.01,3.39 -2.18,0 -3.87,-1.23 -3.96,-3.09l-1.57 0c0.08,2.65 2.38,4.49 5.55,4.49z"/>
  <path id="_1" class="fil0" d="M27.92 30.14c3.19,0 5.52,-2.06 5.52,-4.79 0,-2.17 -1.33,-3.76 -3.5,-4.19l0 -0.11c1.79,-0.53 2.92,-1.98 2.92,-3.93 0,-2.44 -1.92,-4.49 -4.91,-4.49 -2.86,0 -5.14,1.83 -5.2,4.49l1.5 0c0.05,-1.9 1.7,-3.12 3.68,-3.12 2.06,0 3.42,1.31 3.42,3.19 0,1.99 -1.59,3.27 -3.8,3.27l-1 0 0 1.39 1 0c2.69,0 4.36,1.43 4.36,3.5 0,1.96 -1.66,3.39 -4.01,3.39 -2.18,0 -3.87,-1.23 -3.96,-3.09l-1.57 0c0.08,2.65 2.38,4.49 5.55,4.49z"/>
  <circle class="fil1" cx="21.41" cy="21.42" r="18.88"/>
  <path class="fil0" d="M24.02 1.42c0.06,-0.79 -0.37,-1.32 -1.01,-1.37 -0.64,-0.05 -1.14,0.41 -1.2,1.2 -0.06,0.8 0.36,1.32 1,1.37 0.65,0.05 1.15,-0.41 1.21,-1.2zm-0.3 -0.02c-0.04,0.65 -0.43,0.97 -0.88,0.94 -0.46,-0.04 -0.79,-0.41 -0.74,-1.07 0.05,-0.65 0.43,-0.97 0.89,-0.94 0.45,0.04 0.78,0.42 0.73,1.07zm1.45 -0.25l0.27 0.05 0.04 -0.22c0.03,-0.18 0.14,-0.32 0.27,-0.45l-0.13 -0.15c-0.22,0.12 -0.38,0.35 -0.41,0.55l-0.04 0.22zm1.11 1.98l1.64 0.55 0.09 -0.25 -1.3 -0.44 1.93 -1.48 0.08 -0.21 -1.65 -0.56 -0.08 0.26 1.29 0.44 -1.93 1.48 -0.07 0.21zm2.78 0.99l0.8 0.41c0.53,0.27 0.88,0.13 1.06,-0.21 0.18,-0.35 0.03,-0.67 -0.17,-0.79l0.01 -0.02c0.22,0.04 0.46,0 0.61,-0.28 0.16,-0.33 0.08,-0.71 -0.39,-0.95l-0.78 -0.4 -1.14 2.24zm0.39 -0.1l0.4 -0.78 0.55 0.28c0.29,0.15 0.37,0.44 0.26,0.67 -0.1,0.19 -0.32,0.28 -0.67,0.1l-0.54 -0.27zm0.52 -1.02l0.38 -0.74 0.51 0.26c0.3,0.15 0.35,0.38 0.25,0.57 -0.12,0.24 -0.39,0.29 -0.64,0.17l-0.5 -0.26zm1.68 2.53l1.25 0.89 0.15 -0.22 -1 -0.72 0.5 -0.69 0.92 0.65 0.16 -0.22 -0.93 -0.65 0.49 -0.7 0.99 0.71 0.16 -0.22 -1.24 -0.88 -1.45 2.05zm2.2 1.66l0.22 0.21 0.57 -0.59 0.47 -0.03 -0.18 1.44 0.27 0.26 0.19 -1.73 1.54 -0.09 -0.28 -0.28 -1.68 0.13 -0.02 -0.02 0.86 -0.91 -0.22 -0.21 -1.74 1.82zm4.23 0.81l-0.19 -0.24 -1.98 1.55 0.19 0.24 1.98 -1.55zm1.15 2.73l0.16 0.24c0.31,-0.21 0.36,-0.66 0.09,-1.07 -0.26,-0.4 -0.69,-0.57 -1.05,-0.34 -0.29,0.18 -0.32,0.5 -0.21,0.89l0.1 0.31c0.08,0.26 0.13,0.51 -0.08,0.64 -0.24,0.15 -0.53,0.03 -0.72,-0.27 -0.16,-0.25 -0.19,-0.54 0.03,-0.72l-0.17 -0.26c-0.33,0.24 -0.38,0.68 -0.09,1.13 0.31,0.49 0.76,0.59 1.1,0.37 0.4,-0.25 0.28,-0.71 0.2,-0.96l-0.08 -0.26c-0.06,-0.18 -0.14,-0.49 0.09,-0.63 0.2,-0.13 0.47,-0.04 0.65,0.24 0.17,0.26 0.17,0.53 -0.02,0.69zm1.13 1.31l0.32 0.72 -2.04 0.92 0.12 0.28 2.05 -0.92 0.32 0.72 0.25 -0.11 -0.78 -1.72 -0.24 0.11zm0.85 5.36c0.76,-0.22 1.11,-0.8 0.94,-1.42 -0.18,-0.62 -0.78,-0.93 -1.55,-0.72 -0.76,0.22 -1.12,0.81 -0.94,1.42 0.18,0.62 0.78,0.94 1.55,0.72zm-0.08 -0.28c-0.63,0.17 -1.07,-0.07 -1.19,-0.51 -0.13,-0.44 0.11,-0.88 0.74,-1.06 0.63,-0.18 1.07,0.07 1.19,0.51 0.13,0.44 -0.12,0.88 -0.74,1.06zm1.68 3.63l-0.02 -0.3 -1.97 0.15 0 -0.03 1.86 -1.52 -0.02 -0.29 -2.5 0.19 0.02 0.3 1.97 -0.15 0 0.03 -1.87 1.51 0.03 0.3 2.5 -0.19zm-1.08 7.47l-2.34 -0.93 -0.1 0.27 1.77 0.7 0 0.02 -2.07 0.03 -0.1 0.26 1.49 1.43 -0.01 0.02 -1.78 -0.7 -0.1 0.27 2.34 0.92 0.13 -0.34 -1.63 -1.56 0.01 -0.03 2.26 -0.03 0.13 -0.33zm-1.86 4.02l0.15 -0.26 -2.18 -1.25 -0.15 0.26 2.18 1.25zm-2.89 -0.14l-0.85 1.2 0.22 0.15 0.68 -0.95 1.82 1.3 0.18 -0.25 -2.05 -1.45zm-1.64 2.06l-1.02 1.07 0.2 0.19 0.8 -0.85 1.63 1.55 0.21 -0.22 -1.82 -1.74zm-0.6 3.99l0.24 -0.19 -1.56 -1.97 -0.24 0.18 1.56 1.98zm-1.06 0.81l-1.56 -0.75 -0.56 -0.87 -0.26 0.16 0.56 0.87 0.04 1.74 0.29 -0.19 -0.05 -1.36 0.03 -0.02 1.22 0.61 0.29 -0.19zm-9.01 1.07l-0.9 0.12c-0.59,0.07 -0.79,0.39 -0.75,0.76 0.05,0.4 0.35,0.58 0.58,0.56l0.01 0.03c-0.21,0.08 -0.38,0.25 -0.34,0.57 0.05,0.37 0.33,0.63 0.85,0.57l0.87 -0.11 -0.32 -2.5zm-0.26 0.31l0.1 0.87 -0.61 0.07c-0.32,0.05 -0.56,-0.15 -0.59,-0.4 -0.03,-0.22 0.1,-0.41 0.5,-0.47l0.6 -0.07zm0.14 1.13l0.1 0.83 -0.57 0.07c-0.33,0.04 -0.5,-0.12 -0.52,-0.33 -0.04,-0.27 0.16,-0.47 0.43,-0.5l0.56 -0.07zm-2.92 -1.16l-0.27 0.7 -1.01 -0.02 -0.24 -0.72 -0.32 -0.01 0.86 2.54 0.32 0 0.98 -2.49 -0.32 0zm-0.37 0.97l-0.43 1.12 -0.02 0 -0.37 -1.14 0.82 0.02zm-4.96 0.96l0.3 0.05 0.35 -1.95 0.02 0.01 1.01 2.19 0.29 0.05 0.44 -2.48 -0.3 -0.05 -0.35 1.94 -0.02 0 -1 -2.19 -0.29 -0.05 -0.45 2.48zm-0.81 -2.86l-0.28 -0.11 -0.3 0.75 -0.42 0.22 -0.39 -1.41 -0.34 -0.13 0.47 1.67 -1.39 0.66 0.37 0.15 1.5 -0.75 0.03 0.02 -0.46 1.15 0.29 0.12 0.92 -2.34zm-4.13 0.93l0.27 0.14 1.15 -2.24 -0.27 -0.14 -1.15 2.24zm-3.08 -1.98l0.24 0.17 1.15 -1.61 0.02 0.01 -0.02 2.41 0.23 0.17 1.46 -2.04 -0.25 -0.18 -1.14 1.61 -0.02 -0.02 0.03 -2.4 -0.24 -0.17 -1.46 2.05zm-1.49 -1.3l0.22 0.21 1.74 -1.82 -0.22 -0.21 -1.74 1.82zm-2.4 -2.59l0.19 0.22 1.5 -1.29 0.01 0.01 -0.59 2.34 0.19 0.22 1.9 -1.64 -0.2 -0.23 -1.49 1.29 -0.01 -0.02 0.59 -2.33 -0.19 -0.22 -1.9 1.65zm-1.2 -3.37l-0.15 -0.27c-0.38,0.33 -0.47,0.85 -0.2,1.3 0.32,0.56 0.98,0.71 1.67,0.32 0.68,-0.4 0.89,-1.04 0.56,-1.62 -0.3,-0.52 -0.86,-0.69 -1.4,-0.38l-0.23 0.14 0.47 0.83 0.24 -0.14 -0.33 -0.57c0.39,-0.22 0.79,-0.11 1,0.26 0.23,0.41 0.11,0.89 -0.46,1.22 -0.57,0.33 -1.05,0.19 -1.27,-0.2 -0.19,-0.31 -0.13,-0.63 0.1,-0.89zm-0.55 -8c-0.04,-0.49 -0.37,-0.82 -0.78,-0.79 -0.32,0.02 -0.54,0.23 -0.56,0.55l-0.02 0c-0.1,-0.25 -0.32,-0.39 -0.6,-0.37 -0.36,0.03 -0.65,0.33 -0.62,0.8 0.04,0.43 0.33,0.77 0.73,0.75l-0.03 -0.29c-0.25,0.01 -0.41,-0.22 -0.43,-0.48 -0.02,-0.28 0.13,-0.47 0.38,-0.49 0.27,-0.02 0.46,0.18 0.48,0.47l0.01 0.21 0.27 -0.02 -0.01 -0.21c-0.03,-0.38 0.15,-0.6 0.42,-0.62 0.27,-0.02 0.47,0.19 0.49,0.51 0.02,0.3 -0.11,0.54 -0.35,0.57l0.02 0.31c0.4,-0.05 0.64,-0.41 0.6,-0.9zm-0.03 -2.89c0.03,-0.49 -0.24,-0.87 -0.65,-0.9 -0.32,-0.03 -0.57,0.14 -0.64,0.46l-0.02 -0.01c-0.06,-0.26 -0.26,-0.43 -0.54,-0.45 -0.36,-0.03 -0.69,0.23 -0.73,0.69 -0.03,0.44 0.21,0.82 0.6,0.86l0.02 -0.29c-0.24,-0.03 -0.37,-0.28 -0.35,-0.54 0.02,-0.28 0.2,-0.45 0.45,-0.43 0.27,0.02 0.42,0.24 0.4,0.54l-0.02 0.2 0.27 0.02 0.02 -0.2c0.03,-0.38 0.24,-0.58 0.51,-0.55 0.27,0.02 0.43,0.26 0.41,0.58 -0.02,0.29 -0.19,0.51 -0.44,0.51l-0.02 0.31c0.4,0.01 0.69,-0.32 0.73,-0.8zm-0.55 -7.91l1.72 -0.13 0.93 0.47 0.14 -0.27 -0.93 -0.48 -0.9 -1.48 -0.16 0.31 0.73 1.16 -0.01 0.03 -1.37 0.08 -0.15 0.31zm1.97 -3.33l-0.17 0.24 2.05 1.46 0.17 -0.25 -2.05 -1.45zm2.85 0.42l0.97 -1.12 -0.21 -0.17 -0.76 0.88 -1.7 -1.47 -0.2 0.23 1.9 1.65zm1.83 -1.91l1.11 -0.97 -0.18 -0.2 -0.88 0.76 -1.47 -1.69 -0.23 0.2 1.65 1.9zm0.97 -3.93l-0.26 0.17 1.36 2.12 0.25 -0.17 -1.35 -2.12zm3.21 -0.89l0.28 -0.15c-0.31,-0.39 -0.82,-0.5 -1.3,-0.26 -0.57,0.3 -0.75,0.95 -0.39,1.65 0.37,0.71 1,0.95 1.59,0.64 0.53,-0.27 0.73,-0.82 0.45,-1.37l-0.13 -0.24 -0.85 0.43 0.12 0.24 0.6 -0.3c0.19,0.41 0.06,0.79 -0.32,0.99 -0.42,0.21 -0.9,0.06 -1.19,-0.52 -0.3,-0.58 -0.14,-1.06 0.25,-1.26 0.33,-0.17 0.64,-0.1 0.89,0.15zm1.71 -1.5l-0.28 0.1 0.8 2.38 0.29 -0.1 -0.81 -2.38z"/>
 </g>
</svg>
