<?xml version="1.0" encoding="utf-8"?>
<!-- Generator: Adobe Illustrator 23.0.2, SVG Export Plug-In . SVG Version: 6.00 Build 0)  -->
<svg version="1.1" id="Слой_1" xmlns="http://www.w3.org/2000/svg" xmlns:xlink="http://www.w3.org/1999/xlink" x="0px" y="0px"
	 viewBox="0 0 24 24" style="enable-background:new 0 0 24 24;" xml:space="preserve">
<style type="text/css">
	.st0{fill-rule:evenodd;clip-rule:evenodd;fill:#093475;}
</style>
<path class="st0" d="M12,0C5.4,0,0,5.4,0,12s5.4,12,12,12s12-5.4,12-12C24,5.4,18.6,0,12,0z M12,21.5c-1.2,0-2.6-2-3.3-5h6.6
	C14.6,19.5,13.2,21.5,12,21.5z M8.4,14.5c-0.2-1.7-0.2-3.3,0-5h7.2c0.2,1.7,0.2,3.3,0,5H8.4z M2,12c0-0.8,0.1-1.7,0.3-2.5h4
	c-0.1,0.8-0.1,1.6-0.1,2.5s0.1,1.7,0.1,2.5h-4C2.1,13.7,2,12.8,2,12z M12,2.5c1.2,0,2.6,2,3.3,5H8.7C9.4,4.5,10.8,2.5,12,2.5z
	 M17.6,9.5h4c0.4,1.6,0.4,3.4,0,5h-4c0.1-0.8,0.1-1.6,0.1-2.5S17.7,10.3,17.6,9.5z M20.9,7.5h-3.6c-0.3-1.7-1-3.4-1.9-4.9
	C17.8,3.5,19.8,5.2,20.9,7.5z M8.6,2.6C7.6,4.1,7,5.8,6.7,7.5H3.1C4.2,5.2,6.2,3.5,8.6,2.6L8.6,2.6z M3.1,16.5h3.6
	c0.3,1.7,1,3.4,1.9,4.9C6.2,20.5,4.2,18.8,3.1,16.5L3.1,16.5z M15.4,21.4c1-1.5,1.6-3.1,1.9-4.9h3.6C19.8,18.8,17.8,20.5,15.4,21.4z
	"/>
</svg>
