<svg xmlns="http://www.w3.org/2000/svg" width="90" height="80" viewBox="0 0 90 80">
  <metadata><?xpacket begin="﻿" id="W5M0MpCehiHzreSzNTczkc9d"?>
<x:xmpmeta xmlns:x="adobe:ns:meta/" x:xmptk="Adobe XMP Core 5.6-c138 79.159824, 2016/09/14-01:09:01        ">
   <rdf:RDF xmlns:rdf="http://www.w3.org/1999/02/22-rdf-syntax-ns#">
      <rdf:Description rdf:about=""/>
   </rdf:RDF>
</x:xmpmeta>
                                                                                                    
                                                                                                    
                                                                                                    
                                                                                                    
                                                                                                    
                                                                                                    
                                                                                                    
                                                                                                    
                                                                                                    
                                                                                                    
                                                                                                    
                                                                                                    
                                                                                                    
                                                                                                    
                                                                                                    
                                                                                                    
                                                                                                    
                                                                                                    
                                                                                                    
                                                                                                    
                           
<?xpacket end="w"?></metadata>
<defs>
    <style>
      .cls-1 {
        fill: #e1c178;
        fill-rule: evenodd;
      }
    </style>
  </defs>
  <path class="cls-1" d="M1420.95,731.432a3.421,3.421,0,0,0,1.9-.57l19.68-12.9,17.09,7.694a3.455,3.455,0,0,0,3.78-.624l16.59-15.39v2.751a3.49,3.49,0,1,0,6.98,0v-10.7a3.5,3.5,0,0,0-3.49-3.51h-10.63a3.51,3.51,0,0,0,0,7.019h1.64l-14.12,13.1-16.73-7.531a3.477,3.477,0,0,0-3.33.264l-21.26,13.949a3.519,3.519,0,0,0-1.02,4.856A3.473,3.473,0,0,0,1420.95,731.432Zm70.56,22.55h-9.6V719.224a6.956,6.956,0,0,1-4.11-2.775l-2.86,2.652v34.881h-11.62v-24.9a7.013,7.013,0,0,1-2.28.383,6.843,6.843,0,0,1-2.84-.612l-1.86-.834v25.962h-11.62V722.789l-1.88-.848-5.09,3.339v28.7h-11.62V732.9l-1.37.9a6.937,6.937,0,0,1-5.61.9v19.279h-7.18V684.509a3.485,3.485,0,1,0-6.97,0v72.982a3.5,3.5,0,0,0,3.49,3.509h83.02A3.509,3.509,0,0,0,1491.51,753.982Z" transform="translate(-1405 -681)"/>
</svg>
