<svg xmlns="http://www.w3.org/2000/svg" width="36" height="29.97" viewBox="0 0 36 29.97">
  <defs>
    <style>
      .cls-1 {
        fill: #319dd4;
        fill-rule: evenodd;
      }
    </style>
  </defs>
  <path class="cls-1" d="M1089.69,2679.11l-32.92,12.69a1.186,1.186,0,0,0,.09,2.25l8.37,2.44,3.12,9.8a1.451,1.451,0,0,0,2.4.57l4.32-4.37,8.49,6.16a1.778,1.778,0,0,0,2.78-1.05l5.62-26.59A1.685,1.685,0,0,0,1089.69,2679.11Zm-4.13,5.9-15.29,13.38a0.779,0.779,0,0,0-.27.51l-0.59,5.18a0.16,0.16,0,0,1-.31.03l-2.42-7.72a0.8,0.8,0,0,1,.35-0.93l18.06-11.08A0.394,0.394,0,0,1,1085.56,2685.01Z" transform="translate(-1056 -2679)"/>
</svg>
